{
	"asset":{
		"generator":"Khronos glTF Blender I/O v3.6.27",
		"version":"2.0"
	},
	"scene":0,
	"scenes":[
		{
			"name":"Scene",
			"nodes":[
				0
			]
		}
	],
	"nodes":[
		{
			"mesh":0,
			"name":"Plane",
			"rotation":[
				0.7071068286895752,
				0,
				0,
				0.7071067690849304
			],
			"scale":[
				0.5385393500328064,
				0.5385393500328064,
				0.5385393500328064
			]
		}
	],
	"materials":[
		{
			"doubleSided":true,
			"name":"Material.001",
			"pbrMetallicRoughness":{
				"baseColorTexture":{
					"index":0
				},
				"metallicFactor":0,
				"roughnessFactor":0.5
			}
		}
	],
	"meshes":[
		{
			"name":"Plane",
			"primitives":[
				{
					"attributes":{
						"COLOR_0":0,
						"POSITION":1,
						"NORMAL":2,
						"TEXCOORD_0":3
					},
					"indices":4,
					"material":0
				}
			]
		}
	],
	"textures":[
		{
			"sampler":0,
			"source":0
		}
	],
	"images":[
		{
			"mimeType":"image/png",
			"name":"gun _color",
			"uri":"gun%20_color.png"
		}
	],
	"accessors":[
		{
			"bufferView":0,
			"componentType":5123,
			"count":1222,
			"normalized":true,
			"type":"VEC4"
		},
		{
			"bufferView":1,
			"componentType":5126,
			"count":1222,
			"max":[
				3.650681734085083,
				2.8186707496643066,
				3.559687376022339
			],
			"min":[
				-4.369429588317871,
				-2.8186707496643066,
				-3.535318613052368
			],
			"type":"VEC3"
		},
		{
			"bufferView":2,
			"componentType":5126,
			"count":1222,
			"type":"VEC3"
		},
		{
			"bufferView":3,
			"componentType":5126,
			"count":1222,
			"type":"VEC2"
		},
		{
			"bufferView":4,
			"componentType":5123,
			"count":3132,
			"type":"SCALAR"
		}
	],
	"bufferViews":[
		{
			"buffer":0,
			"byteLength":9776,
			"byteOffset":0,
			"target":34962
		},
		{
			"buffer":0,
			"byteLength":14664,
			"byteOffset":9776,
			"target":34962
		},
		{
			"buffer":0,
			"byteLength":14664,
			"byteOffset":24440,
			"target":34962
		},
		{
			"buffer":0,
			"byteLength":9776,
			"byteOffset":39104,
			"target":34962
		},
		{
			"buffer":0,
			"byteLength":6264,
			"byteOffset":48880,
			"target":34963
		}
	],
	"samplers":[
		{
			"magFilter":9729,
			"minFilter":9987
		}
	],
	"buffers":[
		{
			"byteLength":55144,
			"uri":"voicuuhoa.bin"
		}
	]
}
